<svg width="440" height="200" viewBox="0 0 440 200" fill="none" xmlns="http://www.w3.org/2000/svg">
<rect width="440" height="200" fill="#FF7F57"/>
<path fill-rule="evenodd" clip-rule="evenodd" d="M186.75 73.5062C189.508 73.6441 191.632 75.9917 191.494 78.7497L190.955 89.5282L210.931 80.4482C213.445 79.3055 216.409 80.4171 217.552 82.931C218.695 85.4449 217.583 88.4092 215.069 89.5518L190.393 100.768L189.494 118.75C189.356 121.508 187.008 123.632 184.25 123.494C181.492 123.356 179.368 121.008 179.506 118.25L180.52 97.9664C180.476 97.4875 180.501 97.0093 180.591 96.546L181.506 78.2503C181.644 75.4923 183.992 73.3683 186.75 73.5062ZM205.947 101.93C204.251 99.7506 201.11 99.3579 198.93 101.053C196.751 102.749 196.358 105.89 198.053 108.07L208.553 121.57C210.249 123.749 213.39 124.142 215.57 122.447C217.749 120.751 218.142 117.61 216.447 115.43L205.947 101.93ZM230 75C232.761 75 235 77.2386 235 80V117C235 119.761 232.761 122 230 122C227.239 122 225 119.761 225 117V80C225 77.2386 227.239 75 230 75ZM274 93C274 90.2386 271.761 88 269 88C267.165 88 265.561 88.9885 264.691 90.462C262.655 89.5235 260.389 89 258 89C249.163 89 242 96.1634 242 105C242 113.837 249.163 121 258 121C260.487 121 262.841 120.433 264.941 119.42C265.849 120.68 267.329 121.5 269 121.5C271.761 121.5 274 119.261 274 116.5V105V93ZM258 99C261.314 99 264 101.686 264 105C264 108.314 261.314 111 258 111C254.686 111 252 108.314 252 105C252 101.686 254.686 99 258 99ZM291 111.671V97.6774C295.634 97.6147 297.951 98.7334 299.046 99.6613C300.347 100.765 300.89 102.431 300.753 104.392C300.64 106.006 299.781 107.984 297.819 109.468C296.416 110.53 294.236 111.488 291 111.671ZM303.853 117.443C300.527 119.96 296.204 121.485 291 121.679V127.5C291 130.261 288.761 132.5 286 132.5C283.239 132.5 281 130.261 281 127.5V93C281 90.2386 283.239 88 286 88C286.058 88 286.115 88.001 286.172 88.0029C294.733 86.9817 301.201 88.3777 305.513 92.034C309.938 95.7859 311.015 100.99 310.728 105.089C310.417 109.535 308.156 114.187 303.853 117.443ZM320 90C317.239 90 315 92.2386 315 95C315 97.7614 317.239 100 320 100H326.755L318.438 111.584C317.437 112.979 317.221 114.79 317.867 116.381C318.513 117.972 319.931 119.12 321.621 119.422L335.621 121.922C338.339 122.408 340.937 120.597 341.422 117.879C341.908 115.161 340.097 112.563 337.379 112.078L331.188 110.972L340.562 97.916C341.655 96.3928 341.805 94.3858 340.949 92.7175C340.093 91.0491 338.375 90 336.5 90H320Z" fill="white"/>
<path fill-rule="evenodd" clip-rule="evenodd" d="M100.683 103.042C97.195 96.6443 99.9847 85.0891 101.414 80.2197C101.826 78.8186 103.051 77.8237 104.522 77.6078C107.05 77.2371 109.278 79.2538 109.101 81.7521L108.707 87.3286L121.524 73.647C122.619 72.4783 124.4 72.2221 125.792 73.0331C127.604 74.0893 128.018 76.4851 126.663 78.0677L119.731 86.1607C118.603 85.8218 117.376 85.7168 116.113 85.9021C113.113 86.3422 110.474 88.4061 109.578 91.4575C108.829 94.0074 107.7 98.3798 107.225 103.025C106.971 105.502 106.873 108.308 107.238 111.057C104.609 109.125 102.55 106.466 100.683 103.042ZM135.417 80.8564C135.56 79.7057 135.179 78.5069 134.282 77.6275C132.729 76.1054 130.21 76.1054 128.657 77.6275L119.897 86.2123C121.819 86.8339 123.44 88.138 124.445 89.8387L130.634 83.2332C131.92 81.8595 133.632 81.0505 135.417 80.8564Z" fill="#FFB9A3"/>
<path fill-rule="evenodd" clip-rule="evenodd" d="M136.356 73.7905C136.053 75.4758 137.201 77.0828 138.921 77.38C140.64 77.6771 142.28 76.5519 142.584 74.8666L143.345 70.6371C143.648 68.9518 142.5 67.3447 140.78 67.0476C139.06 66.7504 137.42 67.8757 137.117 69.561L136.356 73.7905ZM153.614 76.6011C154.849 75.3911 154.849 73.4292 153.614 72.2191C152.379 71.0091 150.377 71.0091 149.142 72.2191L145.269 76.0152C144.034 77.2253 144.034 79.1871 145.269 80.3972C146.503 81.6072 148.505 81.6072 149.74 80.3972L153.614 76.6011ZM113.629 92.5998C112.199 97.4692 109.41 109.024 112.898 115.422C116.378 121.806 120.53 125.531 127.794 126.843C138.059 128.697 150.561 113.647 154.359 108.698C155.076 107.763 155.116 106.51 154.505 105.506C153.54 103.92 151.351 103.565 149.915 104.761L142.285 111.117L151.727 101.864C153.002 100.614 153.126 98.6284 152.016 97.2353C150.737 95.6308 148.335 95.4308 146.799 96.8007L137.409 105.17L146.606 95.4077C148.055 93.8706 148.006 91.487 146.496 90.0076C144.943 88.4855 142.425 88.4855 140.872 90.0076L130.808 99.8699L138.877 90.4478C140.233 88.8653 139.818 86.4694 138.006 85.4133C136.615 84.6023 134.834 84.8585 133.739 86.0271L120.922 99.7087L121.316 94.1322C121.493 91.6339 119.264 89.6172 116.737 89.9879C115.266 90.2038 114.04 91.1987 113.629 92.5998ZM137.914 117.237C137.09 118.043 135.756 118.043 134.933 117.237C134.109 116.43 134.109 115.122 134.933 114.315C135.756 113.509 137.09 113.509 137.914 114.315C138.737 115.122 138.737 116.43 137.914 117.237ZM129.522 118.276C128.109 119.195 125.94 119.817 124.052 117.967C122.195 116.147 122.869 113.973 123.75 112.617C124.11 112.064 124.883 112.062 125.356 112.526L129.604 116.689C130.077 117.153 130.08 117.913 129.522 118.276ZM127.48 107.012C126.657 107.819 125.322 107.819 124.499 107.012C123.676 106.205 123.676 104.897 124.499 104.091C125.322 103.284 126.657 103.284 127.48 104.091C128.303 104.897 128.303 106.205 127.48 107.012ZM158.952 85.3248C159.255 87.0101 158.106 88.6171 156.387 88.9143L152.071 89.6601C150.351 89.9572 148.711 88.8319 148.408 87.1467C148.105 85.4614 149.253 83.8543 150.973 83.5572L155.289 82.8114C157.008 82.5143 158.648 83.6395 158.952 85.3248Z" fill="white"/>
</svg>
